REM DIRINDEX 1\2,1\3,1\4,1\5
REM DIRNAME folder01,folder02,folder03,folder04,folder05
TITLE ""
FILE "CD1Track06.mp3" MP3
  TRACK 01 AUDIO
    TITLE "5:cjc154_0434"
    INDEX 01 00:00:00
  TRACK 02 AUDIO
    TITLE "0:"
    INDEX 01 00:01:38
  TRACK 03 AUDIO
    TITLE "2:cjc154_0435"
    INDEX 01 00:02:47
  TRACK 04 AUDIO
    TITLE "3:cjc154_0436"
    INDEX 01 00:04:74
  TRACK 05 AUDIO
    TITLE "2:cjc154_0437"
    INDEX 01 00:07:35
  TRACK 06 AUDIO
    TITLE "3:cjc154_0438"
    INDEX 01 00:08:38
  TRACK 07 AUDIO
    TITLE "2:cjc154_0439"
    INDEX 01 00:09:44
  TRACK 08 AUDIO
    TITLE "3:cjc154_0440"
    INDEX 01 00:10:70
  TRACK 09 AUDIO
    TITLE "2:cjc154_0441"
    INDEX 01 00:12:22
  TRACK 10 AUDIO
    TITLE "3:cjc154_0442"
    INDEX 01 00:14:04
  TRACK 11 AUDIO
    TITLE "2:cjc154_0443"
    INDEX 01 00:15:68
  TRACK 12 AUDIO
    TITLE "3:cjc154_0444"
    INDEX 01 00:17:29
  TRACK 13 AUDIO
    TITLE "2:cjc154_0445"
    INDEX 01 00:18:72
  TRACK 14 AUDIO
    TITLE "3:cjc154_0446"
    INDEX 01 00:20:71
  TRACK 15 AUDIO
    TITLE "2:cjc154_0447"
    INDEX 01 00:23:04
  TRACK 16 AUDIO
    TITLE "3:cjc154_0448"
    INDEX 01 00:25:15
  TRACK 17 AUDIO
    TITLE "2:cjc154_0449"
    INDEX 01 00:27:34
  TRACK 18 AUDIO
    TITLE "3:cjc154_0450"
    INDEX 01 00:29:40
  TRACK 19 AUDIO
    TITLE "2:cjc154_0451"
    INDEX 01 00:32:00
  TRACK 20 AUDIO
    TITLE "3:cjc154_0452"
    INDEX 01 00:33:50
  TRACK 21 AUDIO
    TITLE "2:cjc154_0453"
    INDEX 01 00:35:39
  TRACK 22 AUDIO
    TITLE "3:cjc154_0454"
    INDEX 01 00:36:74
  TRACK 23 AUDIO
    TITLE "2:cjc154_0455"
    INDEX 01 00:38:41
  TRACK 24 AUDIO
    TITLE "3:cjc154_0456"
    INDEX 01 00:39:58
  TRACK 25 AUDIO
    TITLE "2:cjc154_0457"
    INDEX 01 00:41:06
  TRACK 26 AUDIO
    TITLE "3:cjc154_0458"
    INDEX 01 00:42:74
  TRACK 27 AUDIO
    TITLE "2:cjc154_0459"
    INDEX 01 00:45:06
  TRACK 28 AUDIO
    TITLE "3:cjc154_0460"
    INDEX 01 00:46:49
  TRACK 29 AUDIO
    TITLE "2:cjc154_0461"
    INDEX 01 00:48:28
  TRACK 30 AUDIO
    TITLE "3:cjc154_0462"
    INDEX 01 00:50:27
  TRACK 31 AUDIO
    TITLE "2:cjc154_0463"
    INDEX 01 00:52:28
  TRACK 32 AUDIO
    TITLE "3:cjc154_0464"
    INDEX 01 00:54:29
  TRACK 33 AUDIO
    TITLE "2:cjc154_0465"
    INDEX 01 00:56:37
  TRACK 34 AUDIO
    TITLE "3:cjc154_0466"
    INDEX 01 00:58:54
  TRACK 35 AUDIO
    TITLE "2:cjc154_0467"
    INDEX 01 01:00:74
  TRACK 36 AUDIO
    TITLE "3:cjc154_0468"
    INDEX 01 01:02:44
  TRACK 37 AUDIO
    TITLE "2:cjc154_0469"
    INDEX 01 01:04:19
  TRACK 38 AUDIO
    TITLE "3:cjc154_0470"
    INDEX 01 01:05:68
  TRACK 39 AUDIO
    TITLE "2:cjc154_0471"
    INDEX 01 01:07:45
  TRACK 40 AUDIO
    TITLE "3:cjc154_0472"
    INDEX 01 01:09:05
  TRACK 41 AUDIO
    TITLE "2:cjc154_0473"
    INDEX 01 01:10:59
  TRACK 42 AUDIO
    TITLE "3:cjc154_0474"
    INDEX 01 01:12:42
  TRACK 43 AUDIO
    TITLE "2:cjc154_0475"
    INDEX 01 01:14:31
  TRACK 44 AUDIO
    TITLE "3:cjc154_0476"
    INDEX 01 01:16:11
  TRACK 45 AUDIO
    TITLE "2:cjc154_0477"
    INDEX 01 01:17:71
  TRACK 46 AUDIO
    TITLE "3:cjc154_0478"
    INDEX 01 01:19:64
  TRACK 47 AUDIO
    TITLE "2:cjc154_0479"
    INDEX 01 01:21:65
  TRACK 48 AUDIO
    TITLE "3:cjc154_0480"
    INDEX 01 01:23:05
  TRACK 49 AUDIO
    TITLE "2:cjc154_0481"
    INDEX 01 01:24:32
  TRACK 50 AUDIO
    TITLE "3:cjc154_0482"
    INDEX 01 01:25:62
  TRACK 51 AUDIO
    TITLE "2:cjc154_0483"
    INDEX 01 01:27:28
  TRACK 52 AUDIO
    TITLE "3:cjc154_0484"
    INDEX 01 01:29:21
  TRACK 53 AUDIO
    TITLE "2:cjc154_0485"
    INDEX 01 01:31:24
  TRACK 54 AUDIO
    TITLE "3:cjc154_0486"
    INDEX 01 01:33:66
  TRACK 55 AUDIO
    TITLE "2:cjc154_0487"
    INDEX 01 01:36:37
  TRACK 56 AUDIO
    TITLE "3:cjc154_0488"
    INDEX 01 01:37:30
  TRACK 57 AUDIO
    TITLE "2:cjc154_0489"
    INDEX 01 01:38:30
  TRACK 58 AUDIO
    TITLE "3:cjc154_0490"
    INDEX 01 01:39:66
  TRACK 59 AUDIO
    TITLE "2:cjc154_0491"
    INDEX 01 01:41:32
  TRACK 60 AUDIO
    TITLE "3:cjc154_0492"
    INDEX 01 01:42:63
  TRACK 61 AUDIO
    TITLE "2:cjc154_0493"
    INDEX 01 01:44:26
  TRACK 62 AUDIO
    TITLE "3:cjc154_0494"
    INDEX 01 01:46:37
  TRACK 63 AUDIO
    TITLE "2:cjc154_0495"
    INDEX 01 01:48:60
  TRACK 64 AUDIO
    TITLE "3:cjc154_0496"
    INDEX 01 01:50:70
  TRACK 65 AUDIO
    TITLE "2:cjc154_0497"
    INDEX 01 01:53:20
  TRACK 66 AUDIO
    TITLE "3:cjc154_0498"
    INDEX 01 01:55:34
  TRACK 67 AUDIO
    TITLE "2:cjc154_0499"
    INDEX 01 01:57:57
  TRACK 68 AUDIO
    TITLE "3:cjc154_0500"
    INDEX 01 01:59:18
  TRACK 69 AUDIO
    TITLE "2:cjc154_0501"
    INDEX 01 02:00:59
  TRACK 70 AUDIO
    TITLE "3:cjc154_0502"
    INDEX 01 02:02:38
  TRACK 71 AUDIO
    TITLE "2:cjc154_0503"
    INDEX 01 02:04:21
  TRACK 72 AUDIO
    TITLE "3:cjc154_0504"
    INDEX 01 02:05:38
  TRACK 73 AUDIO
    TITLE "2:cjc154_0505"
    INDEX 01 02:06:61
  TRACK 74 AUDIO
    TITLE "3:cjc154_0506"
    INDEX 01 02:08:70
  TRACK 75 AUDIO
    TITLE "2:cjc154_0507"
    INDEX 01 02:11:12
  TRACK 76 AUDIO
    TITLE "3:cjc154_0508"
    INDEX 01 02:13:30
  TRACK 77 AUDIO
    TITLE "2:cjc154_0509"
    INDEX 01 02:15:56
  TRACK 78 AUDIO
    TITLE "3:cjc154_0510"
    INDEX 01 02:17:44
  TRACK 79 AUDIO
    TITLE "2:cjc154_0511"
    INDEX 01 02:19:33
  TRACK 80 AUDIO
    TITLE "3:cjc154_0512"
    INDEX 01 02:21:59
  TRACK 81 AUDIO
    TITLE "2:cjc154_0513"
    INDEX 01 02:24:22
  TRACK 82 AUDIO
    TITLE "3:cjc154_0514"
    INDEX 01 02:26:60
  TRACK 83 AUDIO
    TITLE "2:cjc154_0515"
    INDEX 01 02:29:29
  TRACK 84 AUDIO
    TITLE "3:cjc154_0516"
    INDEX 01 02:31:26
  TRACK 85 AUDIO
    TITLE "2:cjc154_0517"
    INDEX 01 02:33:35
  TRACK 86 AUDIO
    TITLE "3:cjc154_0518"
    INDEX 01 02:35:22
  TRACK 87 AUDIO
    TITLE "2:cjc154_0519"
    INDEX 01 02:37:21
  TRACK 88 AUDIO
    TITLE "3:cjc154_0520"
    INDEX 01 02:38:59
  TRACK 89 AUDIO
    TITLE "2:cjc154_0521"
    INDEX 01 02:40:29
  TRACK 90 AUDIO
    TITLE "3:cjc154_0522"
    INDEX 01 02:41:52
  TRACK 91 AUDIO
    TITLE "2:cjc154_0523"
    INDEX 01 02:43:02
  TRACK 92 AUDIO
    TITLE "3:cjc154_0524"
    INDEX 01 02:44:48
  TRACK 93 AUDIO
    TITLE "2:cjc154_0525"
    INDEX 01 02:46:28
  TRACK 94 AUDIO
    TITLE "3:cjc154_0526"
    INDEX 01 02:48:01
  TRACK 95 AUDIO
    TITLE "2:cjc154_0527"
    INDEX 01 02:49:55
  TRACK 96 AUDIO
    TITLE "3:cjc154_0528"
    INDEX 01 02:51:17
  TRACK 97 AUDIO
    TITLE "2:cjc154_0529"
    INDEX 01 02:52:61
  TRACK 98 AUDIO
    TITLE "3:cjc154_0530"
    INDEX 01 02:54:72
  TRACK 99 AUDIO
    TITLE "2:cjc154_0531"
    INDEX 01 02:57:18
  TRACK 100 AUDIO
    TITLE "3:cjc154_0532"
    INDEX 01 02:59:11
  TRACK 101 AUDIO
    TITLE "2:cjc154_0533"
    INDEX 01 03:01:13
  TRACK 102 AUDIO
    TITLE "3:cjc154_0534"
    INDEX 01 03:02:62
  TRACK 103 AUDIO
    TITLE "2:cjc154_0535"
    INDEX 01 03:04:49
  TRACK 104 AUDIO
    TITLE "3:cjc154_0536"
    INDEX 01 03:06:01
  TRACK 105 AUDIO
    TITLE "2:cjc154_0537"
    INDEX 01 03:07:43
  TRACK 106 AUDIO
    TITLE "3:cjc154_0538"
    INDEX 01 03:09:09
  TRACK 107 AUDIO
    TITLE "2:cjc154_0539"
    INDEX 01 03:10:59
  TRACK 108 AUDIO
    TITLE "3:cjc154_0540"
    INDEX 01 03:12:66
  TRACK 109 AUDIO
    TITLE "2:cjc154_0541"
    INDEX 01 03:15:08
  TRACK 110 AUDIO
    TITLE "3:cjc154_0542"
    INDEX 01 03:16:40
  TRACK 111 AUDIO
    TITLE "2:cjc154_0543"
    INDEX 01 03:18:10
  TRACK 112 AUDIO
    TITLE "3:cjc154_0544"
    INDEX 01 03:20:13
  TRACK 113 AUDIO
    TITLE "2:cjc154_0545"
    INDEX 01 03:22:23
  TRACK 114 AUDIO
    TITLE "3:cjc154_0546"
    INDEX 01 03:23:23
  TRACK 115 AUDIO
    TITLE "2:cjc154_0547"
    INDEX 01 03:24:26
  TRACK 116 AUDIO
    TITLE "3:cjc154_0548"
    INDEX 01 03:26:33
  TRACK 117 AUDIO
    TITLE "2:cjc154_0549"
    INDEX 01 03:28:44
  TRACK 118 AUDIO
    TITLE "3:cjc154_0550"
    INDEX 01 03:29:72
  TRACK 119 AUDIO
    TITLE "2:cjc154_0551"
    INDEX 01 03:31:42
  TRACK 120 AUDIO
    TITLE "3:cjc154_0552"
    INDEX 01 03:32:49
  TRACK 121 AUDIO
    TITLE "2:cjc154_0553"
    INDEX 01 03:33:57
  TRACK 122 AUDIO
    TITLE "3:cjc154_0554"
    INDEX 01 03:35:51
  TRACK 123 AUDIO
    TITLE "2:cjc154_0555"
    INDEX 01 03:37:54
  TRACK 124 AUDIO
    TITLE "3:cjc154_0556"
    INDEX 01 03:39:12
  TRACK 125 AUDIO
    TITLE "2:cjc154_0557"
    INDEX 01 03:40:55
  TRACK 126 AUDIO
    TITLE "3:cjc154_0558"
    INDEX 01 03:42:44
  TRACK 127 AUDIO
    TITLE "2:cjc154_0559"
    INDEX 01 03:44:43
  TRACK 128 AUDIO
    TITLE "3:cjc154_0560"
    INDEX 01 03:46:34
  TRACK 129 AUDIO
    TITLE "2:cjc154_0561"
    INDEX 01 03:48:35
  TRACK 130 AUDIO
    TITLE "3:cjc154_0562"
    INDEX 01 03:51:02
  TRACK 131 AUDIO
    TITLE "2:cjc154_0563"
    INDEX 01 03:53:55
  TRACK 132 AUDIO
    TITLE "3:cjc154_0564"
    INDEX 01 03:56:07
  TRACK 133 AUDIO
    TITLE "2:cjc154_0565"
    INDEX 01 03:58:37
  TRACK 134 AUDIO
    TITLE "3:cjc154_0566"
    INDEX 01 04:00:55
  TRACK 135 AUDIO
    TITLE "2:cjc154_0567"
    INDEX 01 04:03:03
  TRACK 136 AUDIO
    TITLE "3:cjc154_0568"
    INDEX 01 04:04:24
  TRACK 137 AUDIO
    TITLE "2:cjc154_0569"
    INDEX 01 04:05:55
  TRACK 138 AUDIO
    TITLE "3:cjc154_0570"
    INDEX 01 04:06:60
  TRACK 139 AUDIO
    TITLE "2:cjc154_0571"
    INDEX 01 04:07:57
  TRACK 140 AUDIO
    TITLE "3:cjc154_0572"
    INDEX 01 04:08:59
  TRACK 141 AUDIO
    TITLE "2:cjc154_0573"
    INDEX 01 04:09:70
  TRACK 142 AUDIO
    TITLE "3:cjc154_0574"
    INDEX 01 04:11:18
  TRACK 143 AUDIO
    TITLE "2:cjc154_0575"
    INDEX 01 04:12:45
  TRACK 144 AUDIO
    TITLE "3:cjc154_0576"
    INDEX 01 04:15:16
  TRACK 145 AUDIO
    TITLE "2:cjc154_0577"
    INDEX 01 04:17:66
  TRACK 146 AUDIO
    TITLE "3:cjc154_0578"
    INDEX 01 04:19:47
  TRACK 147 AUDIO
    TITLE "2:cjc154_0579"
    INDEX 01 04:21:32
  TRACK 148 AUDIO
    TITLE "3:cjc154_0580"
    INDEX 01 04:23:64
  TRACK 149 AUDIO
    TITLE "2:cjc154_0581"
    INDEX 01 04:26:31
  TRACK 150 AUDIO
    TITLE "3:cjc154_0582"
    INDEX 01 04:27:62
  TRACK 151 AUDIO
    TITLE "2:cjc154_0583"
    INDEX 01 04:29:28
  TRACK 152 AUDIO
    TITLE "3:cjc154_0584"
    INDEX 01 04:31:27
  TRACK 153 AUDIO
    TITLE "2:cjc154_0585"
    INDEX 01 04:33:33
  TRACK 154 AUDIO
    TITLE "3:cjc154_0586"
    INDEX 01 04:35:60
  TRACK 155 AUDIO
    TITLE "2:cjc154_0587"
    INDEX 01 04:38:09
  TRACK 156 AUDIO
    TITLE "3:cjc154_0588"
    INDEX 01 04:40:12
  TRACK 157 AUDIO
    TITLE "2:cjc154_0589"
    INDEX 01 04:42:24
  TRACK 158 AUDIO
    TITLE "3:cjc154_0590"
    INDEX 01 04:44:12
  TRACK 159 AUDIO
    TITLE "2:cjc154_0591"
    INDEX 01 04:46:06
  TRACK 160 AUDIO
    TITLE "3:cjc154_0592"
    INDEX 01 04:47:55
  TRACK 161 AUDIO
    TITLE "2:cjc154_0593"
    INDEX 01 04:49:34
  TRACK 162 AUDIO
    TITLE "3:cjc154_0594"
    INDEX 01 04:51:37
  TRACK 163 AUDIO
    TITLE "2:cjc154_0595"
    INDEX 01 04:53:52
  TRACK 164 AUDIO
    TITLE "3:cjc154_0596"
    INDEX 01 04:55:33
  TRACK 165 AUDIO
    TITLE "2:cjc154_0597"
    INDEX 01 04:57:20
  TRACK 166 AUDIO
    TITLE "3:cjc154_0598"
    INDEX 01 04:58:68
  TRACK 167 AUDIO
    TITLE "2:cjc154_0599"
    INDEX 01 05:00:54
  TRACK 168 AUDIO
    TITLE "3:cjc154_0600"
    INDEX 01 05:02:74
  TRACK 169 AUDIO
    TITLE "2:cjc154_0601"
    INDEX 01 05:05:27
  TRACK 170 AUDIO
    TITLE "3:cjc154_0602"
    INDEX 01 05:06:52
  TRACK 171 AUDIO
    TITLE "2:cjc154_0603"
    INDEX 01 05:08:16
  TRACK 172 AUDIO
    TITLE "3:cjc154_0604"
    INDEX 01 05:10:03
  TRACK 173 AUDIO
    TITLE "2:cjc154_0605"
    INDEX 01 05:11:67
  TRACK 174 AUDIO
    TITLE "3:cjc154_0606"
    INDEX 01 05:13:37
  TRACK 175 AUDIO
    TITLE "2:cjc154_0607"
    INDEX 01 05:15:10
  TRACK 176 AUDIO
    TITLE "3:cjc154_0608"
    INDEX 01 05:17:17
  TRACK 177 AUDIO
    TITLE "2:cjc154_0609"
    INDEX 01 05:19:31
  TRACK 178 AUDIO
    TITLE "3:cjc154_0610"
    INDEX 01 05:21:64
  TRACK 179 AUDIO
    TITLE "2:cjc154_0611"
    INDEX 01 05:24:23
  TRACK 180 AUDIO
    TITLE "3:cjc154_0612"
    INDEX 01 05:26:06
  TRACK 181 AUDIO
    TITLE "2:cjc154_0613"
    INDEX 01 05:27:74
  TRACK 182 AUDIO
    TITLE "3:cjc154_0614"
    INDEX 01 05:29:51
  TRACK 183 AUDIO
    TITLE "2:cjc154_0615"
    INDEX 01 05:31:42
  TRACK 184 AUDIO
    TITLE "3:cjc154_0616"
    INDEX 01 05:33:47
  TRACK 185 AUDIO
    TITLE "2:cjc154_0617"
    INDEX 01 05:35:56
  TRACK 186 AUDIO
    TITLE "3:cjc154_0618"
    INDEX 01 05:37:06
  TRACK 187 AUDIO
    TITLE "2:cjc154_0619"
    INDEX 01 05:38:42
  TRACK 188 AUDIO
    TITLE "3:cjc154_0620"
    INDEX 01 05:39:65
  TRACK 189 AUDIO
    TITLE "2:cjc154_0621"
    INDEX 01 05:41:21
  TRACK 190 AUDIO
    TITLE "3:cjc154_0622"
    INDEX 01 05:43:24
  TRACK 191 AUDIO
    TITLE "2:cjc154_0623"
    INDEX 01 05:45:43
  TRACK 192 AUDIO
    TITLE "3:cjc154_0624"
    INDEX 01 05:47:08
  TRACK 193 AUDIO
    TITLE "2:cjc154_0625"
    INDEX 01 05:48:59
  TRACK 194 AUDIO
    TITLE "3:cjc154_0626"
    INDEX 01 05:50:16
  TRACK 195 AUDIO
    TITLE "2:cjc154_0627"
    INDEX 01 05:51:55
  TRACK 196 AUDIO
    TITLE "3:cjc154_0628"
    INDEX 01 05:53:09
  TRACK 197 AUDIO
    TITLE "2:cjc154_0629"
    INDEX 01 05:54:49
  TRACK 198 AUDIO
    TITLE "3:cjc154_0630"
    INDEX 01 05:56:35
  TRACK 199 AUDIO
    TITLE "2:cjc154_0631"
    INDEX 01 05:58:30
  TRACK 200 AUDIO
    TITLE "3:cjc154_0632"
    INDEX 01 06:00:34
  TRACK 201 AUDIO
    TITLE "2:cjc154_0633"
    INDEX 01 06:02:45
  TRACK 202 AUDIO
    TITLE "3:cjc154_0634"
    INDEX 01 06:04:05
  TRACK 203 AUDIO
    TITLE "2:cjc154_0635"
    INDEX 01 06:05:45
  TRACK 204 AUDIO
    TITLE "3:cjc154_0636"
    INDEX 01 06:07:23
  TRACK 205 AUDIO
    TITLE "2:cjc154_0637"
    INDEX 01 06:09:00
  TRACK 206 AUDIO
    TITLE "3:cjc154_0638"
    INDEX 01 06:11:15
  TRACK 207 AUDIO
    TITLE "2:cjc154_0639"
    INDEX 01 06:13:37
  TRACK 208 AUDIO
    TITLE "3:cjc154_0640"
    INDEX 01 06:15:69
  TRACK 209 AUDIO
    TITLE "2:cjc154_0641"
    INDEX 01 06:18:30
  TRACK 210 AUDIO
    TITLE "3:cjc154_0642"
    INDEX 01 06:19:49
  TRACK 211 AUDIO
    TITLE "2:cjc154_0643"
    INDEX 01 06:20:68
  TRACK 212 AUDIO
    TITLE "3:cjc154_0644"
    INDEX 01 06:23:14
  TRACK 213 AUDIO
    TITLE "2:cjc154_0645"
    INDEX 01 06:25:40
  TRACK 214 AUDIO
    TITLE "3:cjc154_0646"
    INDEX 01 06:27:14
  TRACK 215 AUDIO
    TITLE "2:cjc154_0647"
    INDEX 01 06:28:68
  TRACK 216 AUDIO
    TITLE "3:cjc154_0648"
    INDEX 01 06:30:39
  TRACK 217 AUDIO
    TITLE "2:cjc154_0649"
    INDEX 01 06:32:23
  TRACK 218 AUDIO
    TITLE "3:cjc154_0650"
    INDEX 01 06:34:57
  TRACK 219 AUDIO
    TITLE "2:cjc154_0651"
    INDEX 01 06:37:20
  TRACK 220 AUDIO
    TITLE "3:cjc154_0652"
    INDEX 01 06:39:13
  TRACK 221 AUDIO
    TITLE "2:cjc154_0653"
    INDEX 01 06:41:12
  TRACK 222 AUDIO
    TITLE "3:cjc154_0654"
    INDEX 01 06:42:41
  TRACK 223 AUDIO
    TITLE "0:"
    INDEX 01 06:44:10
